<!-- Generator: Adobe Illustrator 22.0.1, SVG Export Plug-In  -->
<svg version="1.1"
	 xmlns="http://www.w3.org/2000/svg" xmlns:xlink="http://www.w3.org/1999/xlink" xmlns:a="http://ns.adobe.com/AdobeSVGViewerExtensions/3.0/"
	 x="0px" y="0px" width="18px" height="18px" viewBox="0 0 18 18" style="enable-background:new 0 0 18 18;" xml:space="preserve">
<style type="text/css">
	.st0{fill:#6F777B;}
</style>
<defs>
</defs>
<g>
	<path class="st0" d="M9,0C6.8,0,5,1.7,5,3.8C5,7.2,6.8,10,9,10s4-2.8,4-6.2C13,1.7,11.2,0,9,0z"/>
	<g>
		<path class="st0" d="M15.7,11.5c-1.1-0.6-2.3-1.1-3.3-1.5c-0.8,0.9-2,1.5-3.4,1.5S6.5,10.9,5.6,10c-1,0.4-2.2,0.9-3.3,1.5
			c-3,1.8-2.3,6.5-2.3,6.5h17.8C17.9,18,18.7,13.3,15.7,11.5z"/>
	</g>
</g>
</svg>
