<!-- Generator: Adobe Illustrator 22.0.1, SVG Export Plug-In  -->
<svg version="1.1"
	 xmlns="http://www.w3.org/2000/svg" xmlns:xlink="http://www.w3.org/1999/xlink" xmlns:a="http://ns.adobe.com/AdobeSVGViewerExtensions/3.0/"
	 x="0px" y="0px" width="381.2px" height="148.5px" viewBox="0 0 381.2 148.5" style="enable-background:new 0 0 381.2 148.5;"
	 xml:space="preserve">
<style type="text/css">
	.st0{fill:#104E74;}
	.st1{fill:#646463;stroke:#000000;stroke-miterlimit:10;}
	.st2{fill:#646463;stroke:#646463;stroke-miterlimit:10;}
	.st3{fill:#1C1C1C;}
	.st4{fill:#333366;stroke:#FFFFFF;stroke-miterlimit:10;}
	.st5{fill:#FFFFFF;}
	.st6{fill:#333366;stroke:#333366;stroke-miterlimit:10;}
	.st7{fill:#E9E9E9;}
	.st8{fill:none;stroke:#C7C7C7;stroke-miterlimit:10;}
	.st9{opacity:0.25;fill:#46A4CE;}
	.st10{clip-path:url(#SVGID_2_);}
	.st11{fill:#EBEBEF;}
	.st12{fill:#FFFFFF;stroke:#CCCCCC;stroke-miterlimit:10;}
	.st13{fill:#333366;}
	.st14{fill:none;stroke:#000000;stroke-width:3;stroke-miterlimit:10;}
	.st15{clip-path:url(#SVGID_4_);}
</style>
<defs>
</defs>
<rect x="0.2" y="55.1" class="st0" width="180.9" height="25.3"/>
<g>
	<line class="st1" x1="8.2" y1="94.3" x2="42.2" y2="94.3"/>
	<line class="st1" x1="8.2" y1="97.8" x2="42.2" y2="97.8"/>
	<line class="st2" x1="8.2" y1="104.6" x2="121.6" y2="104.6"/>
	<line class="st2" x1="8.2" y1="108.1" x2="121.6" y2="108.1"/>
</g>
<g>
	<line class="st1" x1="8.2" y1="120.7" x2="42.2" y2="120.7"/>
	<line class="st1" x1="8.2" y1="124.2" x2="42.2" y2="124.2"/>
	<line class="st2" x1="8.2" y1="131" x2="121.6" y2="131"/>
	<line class="st2" x1="8.2" y1="134.6" x2="121.6" y2="134.6"/>
</g>
<rect x="155" y="40.2" class="st0" width="18.8" height="6.8"/>
<rect x="6" y="14.6" class="st3" width="39.7" height="6"/>
<line class="st4" x1="8.2" y1="70.2" x2="42.2" y2="70.2"/>
<line class="st4" x1="8.2" y1="74.3" x2="42.2" y2="74.3"/>
<rect x="8.2" y="60.5" class="st5" width="67.7" height="3.4"/>
<g>
	<line class="st6" x1="8.2" y1="36.9" x2="34.8" y2="36.9"/>
	<rect x="8.2" y="40.2" class="st7" width="53" height="6.8"/>
</g>
<g>
	<line class="st6" x1="68.6" y1="36.9" x2="95.2" y2="36.9"/>
	<rect x="68.6" y="40.2" class="st7" width="53" height="6.8"/>
</g>
<rect x="0.5" y="7.7" class="st8" width="180.6" height="135.4"/>
<polyline class="st9" points="287.3,15 109.6,63 287.3,144 "/>
<g>
	<defs>
		<circle id="SVGID_1_" cx="307.2" cy="79.5" r="67.5"/>
	</defs>
	<clipPath id="SVGID_2_">
		<use xlink:href="#SVGID_1_"  style="overflow:visible;"/>
	</clipPath>
	<g class="st10">
		<rect x="215.7" class="st11" width="165.5" height="147"/>
		<rect x="262.1" y="78.5" class="st12" width="116.1" height="27.6"/>
		<g>
			<path class="st13" d="M267.1,67.1h-1.4V58c-0.3,0.3-0.8,0.7-1.4,1c-0.6,0.3-1.1,0.6-1.5,0.7v-1.4c0.8-0.4,1.5-0.8,2.1-1.4
				c0.6-0.5,1-1.1,1.3-1.6h0.9V67.1z"/>
			<path class="st13" d="M271.6,67.1v-1.6h1.6v1.6H271.6z"/>
			<path class="st13" d="M280.4,67.1V55.5h8.4v1.4h-6.9v3.6h6.4v1.4h-6.4v4h7.1v1.4H280.4z"/>
			<path class="st13" d="M291,67.1v-8.4h1.3v1.2c0.6-0.9,1.5-1.4,2.7-1.4c0.5,0,1,0.1,1.4,0.3c0.4,0.2,0.7,0.4,1,0.7
				c0.2,0.3,0.4,0.6,0.4,1.1c0.1,0.3,0.1,0.7,0.1,1.4v5.2h-1.4V62c0-0.6-0.1-1-0.2-1.3c-0.1-0.3-0.3-0.5-0.6-0.7
				c-0.3-0.2-0.6-0.3-1-0.3c-0.6,0-1.1,0.2-1.6,0.6c-0.4,0.4-0.7,1.1-0.7,2.2v4.6H291z"/>
			<path class="st13" d="M303.1,65.8l0.2,1.3c-0.4,0.1-0.8,0.1-1.1,0.1c-0.5,0-0.9-0.1-1.2-0.2c-0.3-0.2-0.5-0.4-0.6-0.6
				s-0.2-0.8-0.2-1.7v-4.8h-1v-1.1h1v-2.1l1.4-0.9v2.9h1.4v1.1h-1.4v4.9c0,0.4,0,0.7,0.1,0.8s0.1,0.2,0.2,0.3
				c0.1,0.1,0.3,0.1,0.5,0.1C302.7,65.9,302.9,65.8,303.1,65.8z"/>
			<path class="st13" d="M310.3,64.4l1.5,0.2c-0.2,0.9-0.7,1.5-1.3,2c-0.6,0.5-1.4,0.7-2.4,0.7c-1.2,0-2.2-0.4-2.9-1.1
				s-1.1-1.8-1.1-3.2c0-1.4,0.4-2.5,1.1-3.3s1.7-1.2,2.8-1.2c1.1,0,2,0.4,2.8,1.1c0.7,0.8,1.1,1.8,1.1,3.2c0,0.1,0,0.2,0,0.4h-6.3
				c0.1,0.9,0.3,1.6,0.8,2.1c0.5,0.5,1.1,0.7,1.8,0.7c0.5,0,1-0.1,1.3-0.4C309.8,65.4,310.1,65,310.3,64.4z M305.6,62.1h4.7
				c-0.1-0.7-0.2-1.2-0.5-1.6c-0.5-0.5-1-0.8-1.8-0.8c-0.7,0-1.2,0.2-1.7,0.7S305.7,61.3,305.6,62.1z"/>
			<path class="st13" d="M313.5,67.1v-8.4h1.3v1.3c0.3-0.6,0.6-1,0.9-1.2c0.3-0.2,0.6-0.3,0.9-0.3c0.5,0,1,0.2,1.5,0.5l-0.5,1.3
				c-0.3-0.2-0.7-0.3-1-0.3c-0.3,0-0.6,0.1-0.8,0.3s-0.4,0.4-0.5,0.8c-0.2,0.5-0.2,1.1-0.2,1.7v4.4H313.5z"/>
			<path class="st13" d="M323.4,70.3l-0.2-1.3c0.3,0.1,0.6,0.1,0.8,0.1c0.3,0,0.6-0.1,0.8-0.2c0.2-0.1,0.3-0.3,0.5-0.4
				c0.1-0.1,0.2-0.5,0.4-1.1c0-0.1,0.1-0.2,0.1-0.3l-3.2-8.4h1.5l1.8,4.9c0.2,0.6,0.4,1.3,0.6,1.9c0.2-0.7,0.4-1.3,0.6-1.9l1.8-4.9
				h1.4l-3.2,8.6c-0.3,0.9-0.6,1.6-0.8,1.9c-0.3,0.5-0.5,0.8-0.9,1s-0.7,0.3-1.2,0.3C324.1,70.5,323.7,70.4,323.4,70.3z"/>
			<path class="st13" d="M331.1,62.9c0-1.6,0.4-2.7,1.3-3.5c0.7-0.6,1.6-0.9,2.6-0.9c1.2,0,2.1,0.4,2.8,1.1c0.7,0.8,1.1,1.8,1.1,3.1
				c0,1.1-0.2,1.9-0.5,2.6c-0.3,0.6-0.8,1.1-1.4,1.4c-0.6,0.3-1.3,0.5-2,0.5c-1.2,0-2.1-0.4-2.9-1.1S331.1,64.3,331.1,62.9z
				 M332.5,62.9c0,1.1,0.2,1.9,0.7,2.4c0.5,0.5,1.1,0.8,1.8,0.8c0.7,0,1.3-0.3,1.8-0.8c0.5-0.5,0.7-1.4,0.7-2.5c0-1-0.2-1.8-0.7-2.4
				c-0.5-0.5-1.1-0.8-1.8-0.8c-0.7,0-1.3,0.3-1.8,0.8C332.8,61,332.5,61.8,332.5,62.9z"/>
			<path class="st13" d="M346.1,67.1v-1.2c-0.7,1-1.5,1.4-2.7,1.4c-0.5,0-1-0.1-1.4-0.3c-0.4-0.2-0.8-0.4-1-0.7s-0.4-0.6-0.4-1.1
				c-0.1-0.3-0.1-0.7-0.1-1.3v-5.2h1.4v4.7c0,0.7,0,1.2,0.1,1.5c0.1,0.4,0.3,0.7,0.6,0.9c0.3,0.2,0.6,0.3,1.1,0.3
				c0.4,0,0.8-0.1,1.2-0.3s0.6-0.5,0.8-0.9c0.2-0.4,0.2-0.9,0.2-1.6v-4.5h1.4v8.4H346.1z"/>
			<path class="st13" d="M349.6,67.1v-8.4h1.3v1.3c0.3-0.6,0.6-1,0.9-1.2c0.3-0.2,0.6-0.3,0.9-0.3c0.5,0,1,0.2,1.5,0.5l-0.5,1.3
				c-0.3-0.2-0.7-0.3-1-0.3c-0.3,0-0.6,0.1-0.8,0.3s-0.4,0.4-0.5,0.8c-0.2,0.5-0.2,1.1-0.2,1.7v4.4H349.6z"/>
			<path class="st13" d="M359.6,57.1v-1.6h1.4v1.6H359.6z M359.6,67.1v-8.4h1.4v8.4H359.6z"/>
			<path class="st13" d="M368.6,67.1V66c-0.5,0.8-1.3,1.3-2.4,1.3c-0.7,0-1.3-0.2-1.8-0.6c-0.6-0.4-1-0.9-1.3-1.5
				c-0.3-0.7-0.5-1.4-0.5-2.3c0-0.8,0.1-1.6,0.4-2.3c0.3-0.7,0.7-1.2,1.3-1.6c0.6-0.4,1.2-0.5,1.9-0.5c0.5,0,1,0.1,1.4,0.3
				c0.4,0.2,0.7,0.5,1,0.8v-4.2h1.4v11.6H368.6z M364.1,62.9c0,1.1,0.2,1.9,0.7,2.4s1,0.8,1.6,0.8c0.6,0,1.2-0.3,1.6-0.8
				c0.4-0.5,0.7-1.3,0.7-2.3c0-1.2-0.2-2-0.7-2.5c-0.4-0.5-1-0.8-1.6-0.8c-0.6,0-1.2,0.3-1.6,0.8C364.3,60.9,364.1,61.8,364.1,62.9z
				"/>
			<path class="st13" d="M377.9,64.4l1.5,0.2c-0.2,0.9-0.7,1.5-1.3,2c-0.6,0.5-1.4,0.7-2.4,0.7c-1.2,0-2.2-0.4-2.9-1.1
				s-1.1-1.8-1.1-3.2c0-1.4,0.4-2.5,1.1-3.3s1.7-1.2,2.8-1.2c1.1,0,2,0.4,2.8,1.1c0.7,0.8,1.1,1.8,1.1,3.2c0,0.1,0,0.2,0,0.4h-6.3
				c0.1,0.9,0.3,1.6,0.8,2.1c0.5,0.5,1.1,0.7,1.8,0.7c0.5,0,1-0.1,1.3-0.4C377.4,65.4,377.7,65,377.9,64.4z M373.2,62.1h4.7
				c-0.1-0.7-0.2-1.2-0.5-1.6c-0.5-0.5-1-0.8-1.8-0.8c-0.7,0-1.2,0.2-1.7,0.7S373.3,61.3,373.2,62.1z"/>
		</g>
		<g>
			<path d="M273.4,98.4H272v-9.1c-0.3,0.3-0.8,0.7-1.4,1c-0.6,0.3-1.1,0.6-1.5,0.7v-1.4c0.8-0.4,1.5-0.8,2.1-1.4
				c0.6-0.5,1-1.1,1.3-1.6h0.9V98.4z"/>
			<path d="M284.6,97v1.4h-7.7c0-0.3,0-0.7,0.2-1c0.2-0.5,0.5-1,0.9-1.5c0.4-0.5,1.1-1.1,1.9-1.8c1.3-1,2.1-1.9,2.6-2.5
				c0.4-0.6,0.7-1.2,0.7-1.7c0-0.6-0.2-1-0.6-1.4c-0.4-0.4-0.9-0.6-1.6-0.6c-0.7,0-1.2,0.2-1.6,0.6c-0.4,0.4-0.6,1-0.6,1.7l-1.5-0.2
				c0.1-1.1,0.5-1.9,1.1-2.5c0.7-0.6,1.5-0.9,2.6-0.9c1.1,0,2,0.3,2.6,0.9s1,1.4,1,2.3c0,0.5-0.1,0.9-0.3,1.4
				c-0.2,0.4-0.5,0.9-0.9,1.4c-0.4,0.5-1.2,1.2-2.2,2c-0.9,0.7-1.4,1.2-1.6,1.5c-0.2,0.3-0.4,0.5-0.6,0.8H284.6z"/>
			<path d="M286.1,95.4l1.4-0.2c0.2,0.8,0.4,1.4,0.8,1.7s0.9,0.5,1.4,0.5c0.7,0,1.2-0.2,1.7-0.7s0.7-1,0.7-1.7
				c0-0.7-0.2-1.2-0.6-1.6c-0.4-0.4-1-0.6-1.6-0.6c-0.3,0-0.6,0.1-1,0.2l0.2-1.3c0.1,0,0.2,0,0.2,0c0.6,0,1.2-0.2,1.6-0.5
				c0.5-0.3,0.7-0.8,0.7-1.5c0-0.5-0.2-1-0.5-1.3c-0.4-0.3-0.8-0.5-1.4-0.5c-0.6,0-1,0.2-1.4,0.5c-0.4,0.3-0.6,0.9-0.7,1.6l-1.4-0.3
				c0.2-1,0.6-1.7,1.2-2.2c0.6-0.5,1.4-0.8,2.3-0.8c0.6,0,1.2,0.1,1.8,0.4c0.5,0.3,0.9,0.6,1.2,1.1c0.3,0.5,0.4,1,0.4,1.5
				c0,0.5-0.1,1-0.4,1.4c-0.3,0.4-0.7,0.7-1.2,1c0.7,0.2,1.2,0.5,1.6,1c0.4,0.5,0.6,1.1,0.6,1.9c0,1-0.4,1.9-1.1,2.6
				s-1.7,1.1-2.8,1.1c-1,0-1.9-0.3-2.5-0.9S286.2,96.3,286.1,95.4z"/>
			<path d="M299.7,98.4v-2.8h-5v-1.3l5.3-7.5h1.2v7.5h1.6v1.3h-1.6v2.8H299.7z M299.7,94.3v-5.2l-3.6,5.2H299.7z"/>
			<path d="M304.2,95.4l1.5-0.1c0.1,0.7,0.4,1.3,0.8,1.6c0.4,0.4,0.9,0.5,1.5,0.5c0.7,0,1.3-0.3,1.7-0.8c0.5-0.5,0.7-1.2,0.7-2.1
				c0-0.8-0.2-1.5-0.7-1.9c-0.5-0.5-1.1-0.7-1.8-0.7c-0.5,0-0.9,0.1-1.2,0.3c-0.4,0.2-0.7,0.5-0.9,0.8l-1.3-0.2l1.1-6h5.8v1.4h-4.6
				l-0.6,3.1c0.7-0.5,1.4-0.7,2.2-0.7c1,0,1.9,0.4,2.6,1.1s1,1.6,1,2.7c0,1.1-0.3,2-0.9,2.7c-0.7,0.9-1.8,1.4-3.1,1.4
				c-1.1,0-1.9-0.3-2.6-0.9C304.6,97.1,304.2,96.4,304.2,95.4z"/>
			<path d="M320.6,89.6l-1.4,0.1c-0.1-0.6-0.3-1-0.5-1.2c-0.4-0.4-0.9-0.6-1.4-0.6c-0.5,0-0.9,0.1-1.2,0.4c-0.4,0.3-0.8,0.8-1.1,1.4
				c-0.3,0.6-0.4,1.5-0.4,2.7c0.3-0.5,0.8-0.9,1.3-1.2c0.5-0.3,1-0.4,1.6-0.4c1,0,1.8,0.4,2.4,1c0.7,0.7,1,1.6,1,2.7
				c0,0.7-0.2,1.4-0.5,2c-0.3,0.6-0.7,1.1-1.3,1.4c-0.5,0.3-1.2,0.5-1.9,0.5c-1.2,0-2.2-0.4-2.9-1.3c-0.8-0.9-1.1-2.3-1.1-4.3
				c0-2.2,0.4-3.9,1.2-4.9c0.7-0.9,1.7-1.3,2.9-1.3c0.9,0,1.7,0.3,2.2,0.8C320.1,88,320.5,88.7,320.6,89.6z M314.8,94.7
				c0,0.5,0.1,1,0.3,1.4c0.2,0.4,0.5,0.8,0.9,1c0.4,0.2,0.8,0.4,1.2,0.4c0.6,0,1.1-0.2,1.6-0.7c0.4-0.5,0.7-1.1,0.7-2
				c0-0.8-0.2-1.4-0.6-1.9s-1-0.7-1.6-0.7c-0.6,0-1.2,0.2-1.6,0.7C315,93.3,314.8,93.9,314.8,94.7z"/>
			<path d="M322.3,88.3V87h7.5v1.1c-0.7,0.8-1.5,1.8-2.2,3.1c-0.7,1.3-1.3,2.6-1.7,4c-0.3,1-0.5,2-0.5,3.2h-1.5c0-0.9,0.2-2,0.5-3.3
				c0.3-1.3,0.8-2.5,1.5-3.7c0.6-1.2,1.3-2.2,2-3H322.3z"/>
			<path d="M333.4,92.1c-0.6-0.2-1-0.5-1.3-0.9s-0.4-0.9-0.4-1.4c0-0.8,0.3-1.6,0.9-2.1c0.6-0.6,1.4-0.9,2.4-0.9
				c1,0,1.8,0.3,2.4,0.9c0.6,0.6,0.9,1.3,0.9,2.2c0,0.5-0.1,1-0.4,1.4s-0.7,0.7-1.3,0.9c0.7,0.2,1.3,0.6,1.6,1.1s0.6,1.1,0.6,1.9
				c0,1-0.4,1.8-1.1,2.5c-0.7,0.7-1.6,1-2.8,1c-1.1,0-2.1-0.3-2.8-1s-1.1-1.5-1.1-2.5c0-0.8,0.2-1.4,0.6-1.9
				C332.2,92.7,332.7,92.3,333.4,92.1z M332.7,95.1c0,0.4,0.1,0.8,0.3,1.2c0.2,0.4,0.5,0.7,0.9,0.9c0.4,0.2,0.8,0.3,1.2,0.3
				c0.7,0,1.2-0.2,1.7-0.7c0.4-0.4,0.7-1,0.7-1.7c0-0.7-0.2-1.3-0.7-1.7c-0.5-0.4-1-0.7-1.7-0.7c-0.7,0-1.2,0.2-1.7,0.7
				C332.9,93.8,332.7,94.4,332.7,95.1z M333.1,89.7c0,0.5,0.2,1,0.5,1.3s0.8,0.5,1.4,0.5c0.5,0,1-0.2,1.4-0.5
				c0.4-0.3,0.5-0.8,0.5-1.3c0-0.5-0.2-1-0.5-1.3c-0.4-0.4-0.8-0.5-1.4-0.5c-0.5,0-1,0.2-1.4,0.5S333.1,89.2,333.1,89.7z"/>
			<path d="M340.5,95.7l1.4-0.1c0.1,0.6,0.3,1.1,0.7,1.4c0.3,0.3,0.7,0.4,1.3,0.4c0.4,0,0.8-0.1,1.2-0.3c0.3-0.2,0.6-0.5,0.8-0.8
				c0.2-0.3,0.4-0.8,0.5-1.4c0.1-0.6,0.2-1.2,0.2-1.7c0-0.1,0-0.2,0-0.3c-0.3,0.5-0.7,0.8-1.2,1.1c-0.5,0.3-1,0.4-1.6,0.4
				c-1,0-1.8-0.3-2.4-1c-0.7-0.7-1-1.6-1-2.8c0-1.2,0.3-2.1,1-2.8c0.7-0.7,1.6-1.1,2.6-1.1c0.8,0,1.4,0.2,2.1,0.6
				c0.6,0.4,1.1,1,1.4,1.7c0.3,0.8,0.5,1.8,0.5,3.3c0,1.5-0.2,2.7-0.5,3.5c-0.3,0.9-0.8,1.5-1.4,2c-0.6,0.5-1.4,0.7-2.2,0.7
				c-0.9,0-1.7-0.3-2.2-0.8C340.9,97.4,340.6,96.6,340.5,95.7z M346.3,90.6c0-0.8-0.2-1.5-0.7-1.9s-1-0.7-1.6-0.7
				c-0.6,0-1.2,0.3-1.7,0.8c-0.5,0.5-0.7,1.2-0.7,2c0,0.7,0.2,1.3,0.7,1.8s1,0.7,1.7,0.7c0.7,0,1.2-0.2,1.6-0.7
				C346.1,92.1,346.3,91.4,346.3,90.6z"/>
		</g>
	</g>
</g>
<circle class="st14" cx="307.2" cy="79.5" r="67.5"/>
</svg>
