<!-- Generator: Adobe Illustrator 22.0.1, SVG Export Plug-In  -->
<svg version="1.1"
	 xmlns="http://www.w3.org/2000/svg" xmlns:xlink="http://www.w3.org/1999/xlink" xmlns:a="http://ns.adobe.com/AdobeSVGViewerExtensions/3.0/"
	 x="0px" y="0px" width="323.9px" height="387.9px" viewBox="0 0 323.9 387.9" style="enable-background:new 0 0 323.9 387.9;"
	 xml:space="preserve">
<style type="text/css">
	.st0{fill:url(#SVGID_2_);}
	.st1{fill:#525656;}
	.st2{fill:url(#SVGID_3_);}
	.st3{fill:#454747;}
	.st4{opacity:0.25;fill:#46A4CE;}
	.st5{fill:#F3F6EF;}
	.st6{fill:none;stroke:#000000;stroke-width:0.5;stroke-miterlimit:10;}
	.st7{fill:none;stroke:#000000;stroke-width:0.75;stroke-miterlimit:10;}
	.st8{fill:none;stroke:#000000;stroke-width:1.5;stroke-miterlimit:10;}
	.st9{fill:#BFC8C7;}
	.st10{clip-path:url(#SVGID_4_);fill:url(#SVGID_5_);}
	.st11{clip-path:url(#SVGID_4_);fill:#525656;}
	.st12{clip-path:url(#SVGID_4_);fill:url(#SVGID_6_);}
	.st13{clip-path:url(#SVGID_4_);fill:#454747;}
	.st14{clip-path:url(#SVGID_4_);fill:#F3F6EF;}
	.st15{clip-path:url(#SVGID_4_);}
	.st16{fill:none;stroke:#000000;stroke-miterlimit:10;}
	.st17{fill:none;stroke:#000000;stroke-width:2;stroke-miterlimit:10;}
	.st18{fill:none;stroke:#000000;stroke-width:3;stroke-miterlimit:10;}
	.st19{fill:url(#SVGID_7_);}
	.st20{fill:url(#SVGID_8_);}
	.st21{clip-path:url(#SVGID_10_);fill:url(#SVGID_11_);}
	.st22{clip-path:url(#SVGID_10_);fill:#525656;}
	.st23{clip-path:url(#SVGID_10_);fill:url(#SVGID_12_);}
	.st24{clip-path:url(#SVGID_10_);fill:#454747;}
	.st25{clip-path:url(#SVGID_10_);fill:#F3F6EF;}
	.st26{clip-path:url(#SVGID_10_);}
</style>
<defs>
</defs>
<linearGradient id="SVGID_2_" gradientUnits="userSpaceOnUse" x1="6.208" y1="25.5065" x2="54.4587" y2="73.7571">
	<stop  offset="0" style="stop-color:#717A7C"/>
	<stop  offset="1" style="stop-color:#36393A"/>
</linearGradient>
<path class="st0" d="M105.4,9.4C96.7,6,87.6,3.5,78.1,1.9C70.5,0.7,62.8,0,54.9,0S39.3,0.7,31.7,1.9C22.3,3.5,13.1,6,4.4,9.4
	C1.2,25.3-4.4,65,6.1,112.3c13.7,61.6,42,64.3,48.8,64.3s35.2-2.7,48.8-64.3C114.2,65,108.6,25.3,105.4,9.4z"/>
<path class="st1" d="M55.3,164.6c-13.3,0-31-14.6-40.9-55.7C4.7,68.7,8.1,34,11.3,16.2c6.7-2,13.7-3.6,20.7-4.7
	c7.7-1.2,15.6-1.8,23.3-1.8s15.6,0.6,23.3,1.8c7,1.1,13.9,2.6,20.7,4.7c3.1,17.8,6.5,52.5-3.1,92.7
	C86.3,149.9,68.6,164.6,55.3,164.6z"/>
<linearGradient id="SVGID_3_" gradientUnits="userSpaceOnUse" x1="98.34" y1="52.8745" x2="38.7361" y2="-6.7293">
	<stop  offset="0" style="stop-color:#717A7C"/>
	<stop  offset="1" style="stop-color:#36393A"/>
</linearGradient>
<path class="st2" d="M105.4,9.4C96.7,6,87.5,3.5,78,1.9C70.5,0.7,62.8,0,54.9,0S39.2,0.7,31.7,1.9C22.2,3.5,13.1,6,4.3,9.4l6.9,6.8
	c6.7-2,13.7-3.6,20.7-4.7c7.7-1.2,15.6-1.8,23.3-1.8s15.6,0.6,23.3,1.8c7,1.1,13.9,2.6,20.7,4.7"/>
<rect x="18.9" y="26.5" class="st3" width="72" height="37"/>
<polyline class="st4" points="205.3,24.9 74.4,36.4 154.1,131.5 "/>
<g>
	<path class="st5" d="M82.5,61.5H27.3c-3.5,0-6.4-2.9-6.4-6.4V32.5c0-2.2,1.8-4,4-4h57.6c3.5,0,6.4,2.9,6.4,6.4v20.2
		C88.9,58.6,86,61.5,82.5,61.5z"/>
	<g>
		<path d="M27.6,37.3h-1.1V33c-0.4,0.4-0.9,0.7-1.5,0.9v-1c0.3-0.1,0.6-0.3,1-0.6c0.3-0.3,0.6-0.6,0.7-1h0.9V37.3z"/>
		<path d="M33.4,36.3v1.1h-4c0-0.4,0.2-0.8,0.4-1.1s0.6-0.8,1.3-1.4c0.5-0.5,0.8-0.8,0.9-1c0.2-0.2,0.2-0.5,0.2-0.7
			c0-0.3-0.1-0.5-0.2-0.6c-0.1-0.1-0.3-0.2-0.6-0.2c-0.2,0-0.4,0.1-0.6,0.2c-0.1,0.1-0.2,0.4-0.2,0.7l-1.1-0.1
			c0.1-0.6,0.3-1.1,0.6-1.4c0.4-0.3,0.8-0.4,1.3-0.4c0.6,0,1,0.2,1.4,0.5c0.3,0.3,0.5,0.7,0.5,1.2c0,0.3,0,0.5-0.1,0.8
			c-0.1,0.2-0.2,0.5-0.5,0.8c-0.1,0.2-0.4,0.4-0.7,0.8c-0.4,0.3-0.6,0.6-0.7,0.7c-0.1,0.1-0.2,0.2-0.2,0.3H33.4z"/>
		<path d="M35.1,34.8v-1.1h2.2v1.1H35.1z"/>
		<path d="M38.6,35.7l1.1-0.1c0,0.3,0.1,0.5,0.3,0.6c0.2,0.1,0.3,0.2,0.6,0.2c0.2,0,0.4-0.1,0.6-0.3c0.2-0.2,0.2-0.4,0.2-0.7
			c0-0.3-0.1-0.5-0.2-0.7c-0.2-0.2-0.3-0.3-0.6-0.3c-0.1,0-0.3,0-0.5,0.1l0.1-0.9c0.3,0,0.5-0.1,0.7-0.2c0.2-0.1,0.2-0.3,0.2-0.6
			c0-0.2-0.1-0.4-0.2-0.5c-0.1-0.1-0.3-0.2-0.5-0.2c-0.2,0-0.4,0.1-0.5,0.2s-0.2,0.3-0.3,0.6l-1-0.2c0.1-0.4,0.2-0.6,0.3-0.9
			c0.1-0.2,0.4-0.4,0.6-0.5c0.3-0.1,0.6-0.2,0.9-0.2c0.6,0,1,0.2,1.3,0.5c0.3,0.3,0.4,0.6,0.4,1c0,0.5-0.3,0.9-0.9,1.3
			c0.3,0.1,0.6,0.2,0.8,0.5c0.2,0.3,0.3,0.6,0.3,0.9c0,0.5-0.2,1-0.6,1.3s-0.9,0.6-1.4,0.6c-0.5,0-1-0.2-1.3-0.5
			C38.8,36.6,38.6,36.2,38.6,35.7z"/>
		<path d="M46.2,37.3v-1.2h-2.4v-1l2.6-3.8h1v3.8h0.7v1h-0.7v1.2H46.2z M46.2,35.1v-2l-1.4,2H46.2z"/>
		<path d="M49.5,35.8l1.1-0.1c0,0.3,0.1,0.5,0.3,0.6c0.2,0.2,0.3,0.2,0.5,0.2c0.2,0,0.4-0.1,0.6-0.3c0.2-0.2,0.2-0.5,0.2-0.9
			c0-0.4-0.1-0.6-0.2-0.8c-0.2-0.2-0.4-0.3-0.6-0.3c-0.3,0-0.6,0.1-0.9,0.4l-0.9-0.1l0.6-3.1h3v1.1H51l-0.2,1
			c0.3-0.1,0.5-0.2,0.8-0.2c0.5,0,0.9,0.2,1.3,0.6c0.3,0.4,0.5,0.8,0.5,1.4c0,0.5-0.1,0.9-0.4,1.3c-0.4,0.5-0.9,0.8-1.6,0.8
			c-0.5,0-1-0.1-1.3-0.4C49.7,36.7,49.5,36.3,49.5,35.8z"/>
		<path d="M58.7,32.8l-1.1,0.1c0-0.2-0.1-0.4-0.2-0.5c-0.1-0.1-0.3-0.2-0.4-0.2c-0.2,0-0.4,0.1-0.6,0.3c-0.2,0.2-0.3,0.7-0.3,1.4
			c0.3-0.3,0.6-0.5,1.1-0.5c0.5,0,0.9,0.2,1.2,0.5c0.3,0.4,0.5,0.8,0.5,1.4c0,0.6-0.2,1.1-0.5,1.5c-0.4,0.4-0.8,0.6-1.4,0.6
			c-0.6,0-1.1-0.2-1.5-0.7c-0.4-0.5-0.6-1.2-0.6-2.3c0-1.1,0.2-1.9,0.6-2.4c0.4-0.5,0.9-0.7,1.6-0.7c0.4,0,0.8,0.1,1.1,0.4
			C58.4,32,58.6,32.3,58.7,32.8z M56.1,35.3c0,0.4,0.1,0.7,0.3,0.9c0.2,0.2,0.4,0.3,0.6,0.3c0.2,0,0.4-0.1,0.5-0.2
			c0.1-0.2,0.2-0.4,0.2-0.8c0-0.4-0.1-0.7-0.2-0.9c-0.2-0.2-0.3-0.3-0.6-0.3c-0.2,0-0.4,0.1-0.6,0.3C56.2,34.7,56.1,35,56.1,35.3z"
			/>
		<path d="M60.3,32.5v-1.1h3.9v0.8c-0.3,0.3-0.6,0.8-1,1.4c-0.3,0.6-0.6,1.2-0.8,1.9c-0.2,0.7-0.3,1.3-0.3,1.8h-1.1
			c0-0.8,0.2-1.7,0.5-2.5c0.3-0.9,0.7-1.6,1.3-2.3H60.3z"/>
		<path d="M65.9,34.1c-0.3-0.1-0.5-0.3-0.6-0.5c-0.1-0.2-0.2-0.5-0.2-0.7c0-0.4,0.2-0.8,0.5-1.1s0.7-0.4,1.3-0.4
			c0.6,0,1,0.1,1.3,0.4c0.3,0.3,0.5,0.7,0.5,1.1c0,0.3-0.1,0.5-0.2,0.7c-0.1,0.2-0.3,0.4-0.6,0.5c0.3,0.1,0.6,0.3,0.7,0.6
			c0.2,0.3,0.3,0.5,0.3,0.9c0,0.6-0.2,1-0.5,1.3c-0.3,0.3-0.8,0.5-1.4,0.5c-0.5,0-1-0.1-1.3-0.4c-0.4-0.3-0.6-0.8-0.6-1.4
			c0-0.3,0.1-0.6,0.2-0.9C65.3,34.5,65.6,34.2,65.9,34.1z M66.1,35.5c0,0.3,0.1,0.6,0.2,0.7c0.2,0.2,0.4,0.3,0.6,0.3
			c0.2,0,0.4-0.1,0.6-0.3c0.2-0.2,0.2-0.4,0.2-0.7c0-0.3-0.1-0.5-0.2-0.7s-0.4-0.3-0.6-0.3c-0.3,0-0.5,0.1-0.6,0.3
			C66.1,35.1,66.1,35.3,66.1,35.5z M66.2,32.9c0,0.2,0.1,0.4,0.2,0.5c0.1,0.1,0.3,0.2,0.5,0.2c0.2,0,0.4-0.1,0.5-0.2
			c0.1-0.1,0.2-0.3,0.2-0.5c0-0.2-0.1-0.4-0.2-0.5c-0.1-0.1-0.3-0.2-0.5-0.2c-0.2,0-0.4,0.1-0.5,0.2C66.2,32.6,66.2,32.7,66.2,32.9z
			"/>
		<path d="M70.4,35.9l1.1-0.1c0,0.2,0.1,0.4,0.2,0.5c0.1,0.1,0.3,0.2,0.4,0.2c0.2,0,0.4-0.1,0.6-0.3c0.2-0.2,0.3-0.7,0.3-1.3
			c-0.3,0.3-0.6,0.5-1.1,0.5c-0.5,0-0.9-0.2-1.2-0.5c-0.3-0.4-0.5-0.8-0.5-1.4c0-0.6,0.2-1.1,0.5-1.5c0.4-0.4,0.8-0.6,1.4-0.6
			c0.6,0,1.1,0.2,1.5,0.7c0.4,0.5,0.6,1.2,0.6,2.3c0,1.1-0.2,1.9-0.6,2.4c-0.4,0.5-0.9,0.7-1.6,0.7c-0.5,0-0.8-0.1-1.1-0.4
			C70.7,36.8,70.5,36.4,70.4,35.9z M73,33.4c0-0.4-0.1-0.7-0.3-0.9c-0.2-0.2-0.4-0.3-0.6-0.3c-0.2,0-0.4,0.1-0.5,0.2
			c-0.1,0.2-0.2,0.4-0.2,0.8c0,0.4,0.1,0.7,0.2,0.8c0.2,0.2,0.3,0.3,0.6,0.3c0.2,0,0.4-0.1,0.6-0.3C72.9,34,73,33.8,73,33.4z"/>
		<path d="M75.9,34.8v-1.1h2.2v1.1H75.9z"/>
		<path d="M81.3,31.3c0.6,0,1,0.2,1.3,0.6c0.4,0.5,0.6,1.3,0.6,2.4c0,1.1-0.2,1.9-0.6,2.4c-0.3,0.4-0.8,0.6-1.3,0.6
			c-0.6,0-1-0.2-1.4-0.7c-0.4-0.4-0.5-1.2-0.5-2.4c0-1.1,0.2-1.9,0.6-2.4C80.3,31.5,80.7,31.3,81.3,31.3z M81.3,32.3
			c-0.1,0-0.3,0-0.4,0.1c-0.1,0.1-0.2,0.2-0.3,0.5c-0.1,0.3-0.1,0.8-0.1,1.5c0,0.7,0,1.2,0.1,1.4c0.1,0.3,0.2,0.4,0.3,0.5
			c0.1,0.1,0.2,0.1,0.4,0.1s0.3,0,0.4-0.1c0.1-0.1,0.2-0.2,0.3-0.5c0.1-0.3,0.1-0.8,0.1-1.5c0-0.7,0-1.2-0.1-1.4
			c-0.1-0.3-0.2-0.4-0.3-0.5C81.6,32.3,81.5,32.3,81.3,32.3z"/>
	</g>
	<g>
		<line class="st6" x1="28.5" y1="41.1" x2="28.5" y2="46.7"/>
		<line class="st6" x1="30.4" y1="41.1" x2="30.4" y2="46.7"/>
		<line class="st7" x1="32.2" y1="41.1" x2="32.2" y2="46.7"/>
		<line class="st6" x1="34" y1="41.1" x2="34" y2="46.7"/>
		<line class="st8" x1="35.8" y1="41.1" x2="35.8" y2="46.7"/>
		<line class="st6" x1="37.7" y1="41.1" x2="37.7" y2="46.7"/>
		<line class="st6" x1="39.5" y1="41.1" x2="39.5" y2="46.7"/>
		<line class="st8" x1="43.2" y1="41.1" x2="43.2" y2="46.7"/>
		<line class="st7" x1="41.3" y1="41.1" x2="41.3" y2="46.7"/>
		<line class="st6" x1="45" y1="41.1" x2="45" y2="46.7"/>
		<line class="st6" x1="46.8" y1="41.1" x2="46.8" y2="46.7"/>
		<line class="st7" x1="48.6" y1="41.1" x2="48.6" y2="46.7"/>
		<line class="st6" x1="50.5" y1="41.1" x2="50.5" y2="46.7"/>
		<line class="st6" x1="52.3" y1="41.1" x2="52.3" y2="46.7"/>
		<line class="st8" x1="54.1" y1="41.1" x2="54.1" y2="46.7"/>
		<line class="st6" x1="56" y1="41.1" x2="56" y2="46.7"/>
		<line class="st6" x1="57.8" y1="41.1" x2="57.8" y2="46.7"/>
		<line class="st8" x1="61.4" y1="41.1" x2="61.4" y2="46.7"/>
		<line class="st7" x1="59.6" y1="41.1" x2="59.6" y2="46.7"/>
		<line class="st6" x1="63.3" y1="41.1" x2="63.3" y2="46.7"/>
		<line class="st6" x1="65.1" y1="41.1" x2="65.1" y2="46.7"/>
		<line class="st7" x1="66.9" y1="41.1" x2="66.9" y2="46.7"/>
		<line class="st6" x1="68.8" y1="41.1" x2="68.8" y2="46.7"/>
		<line class="st6" x1="70.6" y1="41.1" x2="70.6" y2="46.7"/>
		<line class="st8" x1="72.4" y1="41.1" x2="72.4" y2="46.7"/>
		<line class="st6" x1="74.2" y1="41.1" x2="74.2" y2="46.7"/>
		<line class="st6" x1="76.1" y1="41.1" x2="76.1" y2="46.7"/>
	</g>
	<g>
		<path d="M37.2,58.7c-0.1,0-0.2,0-0.3,0c-0.6-0.1-1.2-0.3-1.7-0.6c-1.2-0.7-1.9-1.7-2.2-3c-0.4-1.7,0.2-3.5,1.6-4.6
			c0.6-0.5,1.3-0.8,2.1-1c0.2,0,0.3,0,0.5-0.1c0,0,0,0,0.1,0c0.2,0,0.3,0,0.5,0c0.1,0,0.2,0,0.2,0c0,0.5,0,0.9,0,1.4
			c-2.1-0.2-3.4,1.3-3.6,2.5c0.9,0,1.8,0,2.7,0c0,0.5,0,0.9,0,1.4c-0.9,0-1.8,0-2.7,0c0.3,1.4,1.6,2.7,3.6,2.5c0,0.5,0,0.9,0,1.4
			c-0.1,0-0.2,0-0.2,0C37.5,58.7,37.4,58.7,37.2,58.7z"/>
		<path d="M29.8,49.4c0.1,0,0.2,0,0.2,0c0,0.5,0,0.9,0,1.4c-1.1-0.1-2.1,0.2-2.8,1c-0.6,0.7-0.9,1.5-0.8,2.4c0.1,1.7,1.6,3.2,3.7,3
			c0,0.5,0,0.9,0,1.4c-0.1,0-0.2,0-0.2,0c-0.1,0-0.3,0-0.4,0c0,0,0,0-0.1,0c-0.3,0-0.6-0.1-0.9-0.1c-1.2-0.3-2.2-1.1-2.8-2.2
			c-0.3-0.5-0.5-1.1-0.6-1.8c0-0.1,0-0.2,0-0.3c0-0.1,0-0.3,0-0.4c0,0,0,0,0-0.1c0-0.4,0.1-0.9,0.3-1.3c0.4-1.2,1.2-2,2.3-2.6
			c0.5-0.2,0.9-0.4,1.5-0.4c0.1,0,0.2,0,0.3,0C29.5,49.4,29.7,49.4,29.8,49.4z"/>
	</g>
</g>
<g>
	<circle class="st9" cx="17.6" cy="84.7" r="3.8"/>
	<rect x="17.1" y="82.2" transform="matrix(0.7071 -0.7071 0.7071 0.7071 -54.7125 37.2281)" class="st3" width="1" height="5"/>
	<rect x="17.1" y="82.2" transform="matrix(-0.7071 -0.7071 0.7071 -0.7071 -29.8477 156.9525)" class="st3" width="1" height="5"/>
</g>
<g>
	<circle class="st9" cx="31.5" cy="137.8" r="3.8"/>
	<rect x="31" y="135.3" transform="matrix(0.7071 -0.7071 0.7071 0.7071 -88.225 62.6601)" class="st3" width="1" height="5"/>
	<rect x="31" y="135.3" transform="matrix(-0.7071 -0.7071 0.7071 -0.7071 -43.642 257.577)" class="st3" width="1" height="5"/>
</g>
<g>
	<circle class="st9" cx="79.1" cy="137.8" r="3.8"/>
	<rect x="78.6" y="135.3" transform="matrix(0.7071 -0.7071 0.7071 0.7071 -74.304 96.2685)" class="st3" width="1" height="5"/>
	<rect x="78.6" y="135.3" transform="matrix(-0.7071 -0.7071 0.7071 -0.7071 37.4958 291.1854)" class="st3" width="1" height="5"/>
</g>
<g>
	<circle class="st9" cx="93" cy="84.7" r="3.8"/>
	<rect x="92.5" y="82.2" transform="matrix(0.7071 -0.7071 0.7071 0.7071 -32.6275 90.546)" class="st3" width="1" height="5"/>
	<rect x="92.5" y="82.2" transform="matrix(-0.7071 -0.7071 0.7071 -0.7071 98.8731 210.2704)" class="st3" width="1" height="5"/>
</g>
<g>
	<defs>
		<circle id="SVGID_1_" cx="209.2" cy="92.5" r="67.5"/>
	</defs>
	<clipPath id="SVGID_4_">
		<use xlink:href="#SVGID_1_"  style="overflow:visible;"/>
	</clipPath>
	<linearGradient id="SVGID_5_" gradientUnits="userSpaceOnUse" x1="108.1865" y1="73.3159" x2="208.6547" y2="173.7841">
		<stop  offset="0" style="stop-color:#717A7C"/>
		<stop  offset="1" style="stop-color:#36393A"/>
	</linearGradient>
	<path class="st10" d="M314.8,39.8c-18.2-7-37.3-12.3-57-15.6c-15.7-2.6-31.8-4-48.2-4s-32.5,1.4-48.2,4c-19.7,3.3-38.8,8.5-57,15.6
		c-6.6,33.2-18.3,115.8,3.6,214.2c28.5,128.3,87.5,133.9,101.7,133.9c14.2,0,73.2-5.6,101.7-133.9
		C333.1,155.6,321.4,72.9,314.8,39.8z"/>
	<path class="st11" d="M210.4,362.9c-27.6,0-64.5-30.5-85.1-116c-20.1-83.7-13-155.8-6.5-192.9c14-4.2,28.5-7.5,43-9.7
		c16-2.5,32.4-3.7,48.6-3.7s32.6,1.2,48.6,3.7c14.6,2.2,29,5.5,43,9.7c6.5,37.1,13.6,109.3-6.5,192.9
		C274.9,332.4,238,362.9,210.4,362.9z"/>
	<linearGradient id="SVGID_6_" gradientUnits="userSpaceOnUse" x1="300.0249" y1="130.3021" x2="175.9168" y2="6.194">
		<stop  offset="0" style="stop-color:#717A7C"/>
		<stop  offset="1" style="stop-color:#36393A"/>
	</linearGradient>
	<path class="st12" d="M314.7,39.8c-18.2-7-37.3-12.3-57-15.6c-15.7-2.6-31.8-4-48.2-4s-32.5,1.4-48.2,4c-19.7,3.3-38.8,8.5-57,15.6
		l14.4,14.1c14-4.2,28.5-7.5,43-9.7c16-2.5,32.4-3.7,48.6-3.7s32.6,1.2,48.6,3.7c14.6,2.2,29,5.5,43,9.7"/>
	<rect x="134.5" y="75.3" class="st13" width="149.9" height="77"/>
	<path class="st14" d="M273.9,148.2H145.1c-3.5,0-6.4-2.9-6.4-6.4V83.5c0-2.2,1.8-4,4-4h131.2c3.5,0,6.4,2.9,6.4,6.4v55.9
		C280.3,145.3,277.4,148.2,273.9,148.2z"/>
	<g class="st15">
		<path d="M152.8,97.9h-2.4v-9c-0.9,0.8-1.9,1.4-3.1,1.8v-2.2c0.6-0.2,1.3-0.6,2-1.2c0.7-0.6,1.2-1.2,1.5-2h1.9V97.9z"/>
		<path d="M164.8,95.7v2.2h-8.3c0.1-0.8,0.4-1.6,0.8-2.4s1.3-1.7,2.7-3c1.1-1,1.7-1.7,2-2c0.3-0.5,0.5-1,0.5-1.5
			c0-0.5-0.1-0.9-0.4-1.2c-0.3-0.3-0.7-0.4-1.2-0.4c-0.5,0-0.9,0.1-1.2,0.4c-0.3,0.3-0.5,0.8-0.5,1.5l-2.4-0.2
			c0.1-1.3,0.6-2.2,1.3-2.8s1.7-0.9,2.8-0.9c1.2,0,2.2,0.3,2.9,1s1,1.5,1,2.5c0,0.6-0.1,1.1-0.3,1.6c-0.2,0.5-0.5,1-0.9,1.6
			c-0.3,0.4-0.8,0.9-1.5,1.6c-0.7,0.7-1.2,1.1-1.4,1.4c-0.2,0.2-0.4,0.4-0.5,0.7H164.8z"/>
		<path d="M168.4,92.7v-2.4h4.6v2.4H168.4z"/>
		<path d="M175.5,94.6l2.3-0.3c0.1,0.6,0.3,1,0.6,1.3c0.3,0.3,0.7,0.5,1.2,0.5c0.5,0,0.9-0.2,1.2-0.6c0.3-0.4,0.5-0.9,0.5-1.5
			c0-0.6-0.2-1.1-0.5-1.4s-0.7-0.5-1.2-0.5c-0.3,0-0.7,0.1-1.1,0.2l0.3-1.9c0.6,0,1.1-0.1,1.5-0.4c0.3-0.3,0.5-0.7,0.5-1.2
			c0-0.4-0.1-0.8-0.4-1c-0.2-0.2-0.6-0.4-1-0.4c-0.4,0-0.7,0.1-1,0.4c-0.3,0.3-0.5,0.7-0.5,1.2l-2.2-0.4c0.2-0.8,0.4-1.3,0.7-1.8
			c0.3-0.4,0.7-0.8,1.3-1.1c0.5-0.3,1.2-0.4,1.8-0.4c1.2,0,2.1,0.4,2.8,1.1c0.6,0.6,0.9,1.3,0.9,2.1c0,1.1-0.6,2-1.8,2.6
			c0.7,0.2,1.3,0.5,1.7,1c0.4,0.5,0.6,1.2,0.6,1.9c0,1.1-0.4,2-1.2,2.8c-0.8,0.8-1.8,1.2-3,1.2c-1.1,0-2-0.3-2.8-1
			C176.1,96.5,175.6,95.7,175.5,94.6z"/>
		<path d="M191.5,97.9v-2.5h-5v-2.1l5.3-7.9h2v7.9h1.5v2.1h-1.5v2.5H191.5z M191.5,93.3v-4.2l-2.8,4.2H191.5z"/>
		<path d="M198.2,94.7l2.4-0.2c0.1,0.5,0.3,1,0.6,1.3c0.3,0.3,0.7,0.5,1.1,0.5c0.5,0,0.9-0.2,1.3-0.6c0.3-0.4,0.5-1,0.5-1.8
			c0-0.8-0.2-1.3-0.5-1.7c-0.3-0.4-0.8-0.6-1.3-0.6c-0.7,0-1.3,0.3-1.8,0.9l-1.9-0.3l1.2-6.5h6.2v2.2h-4.5l-0.4,2.1
			c0.5-0.3,1.1-0.4,1.6-0.4c1,0,1.9,0.4,2.7,1.2c0.7,0.8,1.1,1.8,1.1,3c0,1-0.3,1.9-0.9,2.7c-0.8,1.1-1.9,1.6-3.3,1.6
			c-1.1,0-2.1-0.3-2.8-0.9C198.8,96.6,198.4,95.7,198.2,94.7z"/>
		<path d="M217.5,88.5l-2.3,0.3c-0.1-0.5-0.2-0.8-0.4-1c-0.2-0.2-0.5-0.3-0.9-0.3c-0.5,0-0.9,0.2-1.3,0.7c-0.3,0.5-0.6,1.4-0.7,2.8
			c0.6-0.7,1.3-1,2.2-1c1,0,1.8,0.4,2.5,1.1s1.1,1.7,1.1,2.9c0,1.3-0.4,2.3-1.1,3.1c-0.7,0.8-1.7,1.2-2.9,1.2
			c-1.2,0-2.3-0.5-3.1-1.5c-0.8-1-1.2-2.6-1.2-4.8c0-2.3,0.4-3.9,1.3-4.9c0.8-1,1.9-1.5,3.3-1.5c0.9,0,1.7,0.3,2.3,0.8
			C217,86.8,217.3,87.5,217.5,88.5z M212.2,93.7c0,0.8,0.2,1.4,0.5,1.8c0.4,0.4,0.8,0.6,1.2,0.6c0.4,0,0.8-0.2,1.1-0.5
			s0.4-0.9,0.4-1.7c0-0.8-0.2-1.4-0.5-1.8s-0.7-0.6-1.2-0.6c-0.5,0-0.8,0.2-1.2,0.5C212.3,92.5,212.2,93,212.2,93.7z"/>
		<path d="M220.8,87.9v-2.2h8.1v1.7c-0.7,0.7-1.3,1.6-2,2.8c-0.7,1.2-1.2,2.6-1.6,3.9c-0.4,1.4-0.5,2.6-0.5,3.7h-2.3
			c0-1.7,0.4-3.5,1.1-5.2c0.7-1.8,1.6-3.4,2.7-4.8H220.8z"/>
		<path d="M232.6,91.2c-0.6-0.3-1.1-0.6-1.3-1.1c-0.3-0.5-0.4-1-0.4-1.5c0-0.9,0.3-1.7,1-2.3c0.6-0.6,1.6-0.9,2.7-0.9
			c1.2,0,2.1,0.3,2.7,0.9c0.6,0.6,1,1.4,1,2.3c0,0.6-0.1,1.1-0.4,1.5c-0.3,0.4-0.7,0.8-1.3,1c0.7,0.3,1.2,0.7,1.6,1.2
			c0.4,0.5,0.5,1.1,0.5,1.8c0,1.1-0.4,2.1-1.1,2.8c-0.7,0.7-1.7,1.1-2.9,1.1c-1.1,0-2.1-0.3-2.8-0.9c-0.9-0.7-1.3-1.7-1.3-2.9
			c0-0.7,0.2-1.3,0.5-1.9C231.3,91.9,231.9,91.5,232.6,91.2z M232.8,94.1c0,0.7,0.2,1.2,0.5,1.5c0.3,0.4,0.7,0.6,1.2,0.6
			c0.5,0,0.9-0.2,1.2-0.5c0.3-0.4,0.5-0.9,0.5-1.5c0-0.6-0.2-1-0.5-1.4s-0.7-0.5-1.2-0.5c-0.6,0-1,0.2-1.3,0.6
			S232.8,93.7,232.8,94.1z M233,88.8c0,0.5,0.1,0.8,0.4,1.1c0.3,0.3,0.6,0.4,1.1,0.4c0.4,0,0.8-0.1,1.1-0.4c0.3-0.3,0.4-0.6,0.4-1.1
			c0-0.4-0.1-0.8-0.4-1.1c-0.3-0.3-0.6-0.4-1.1-0.4c-0.5,0-0.8,0.1-1.1,0.4C233.2,88,233,88.4,233,88.8z"/>
		<path d="M241.9,95l2.3-0.3c0.1,0.5,0.2,0.8,0.4,1c0.2,0.2,0.5,0.3,0.9,0.3c0.5,0,0.9-0.2,1.2-0.7c0.3-0.5,0.6-1.4,0.7-2.8
			c-0.6,0.7-1.3,1-2.2,1c-1,0-1.8-0.4-2.5-1.1c-0.7-0.8-1.1-1.7-1.1-2.9c0-1.3,0.4-2.3,1.1-3c0.7-0.8,1.7-1.2,2.8-1.2
			c1.3,0,2.3,0.5,3.1,1.5c0.8,1,1.2,2.6,1.2,4.8c0,2.3-0.4,3.9-1.3,4.9c-0.8,1-1.9,1.5-3.3,1.5c-1,0-1.7-0.3-2.3-0.8
			C242.4,96.8,242.1,96.1,241.9,95z M247.2,89.8c0-0.8-0.2-1.4-0.5-1.8c-0.4-0.4-0.8-0.6-1.2-0.6c-0.4,0-0.8,0.2-1.1,0.5
			c-0.3,0.3-0.4,0.9-0.4,1.7c0,0.8,0.2,1.4,0.5,1.8c0.3,0.4,0.7,0.6,1.2,0.6c0.5,0,0.8-0.2,1.1-0.5
			C247.1,91.1,247.2,90.5,247.2,89.8z"/>
		<path d="M253.4,92.7v-2.4h4.6v2.4H253.4z"/>
		<path d="M264.6,85.4c1.2,0,2.1,0.4,2.8,1.3c0.8,1,1.2,2.7,1.2,5.1c0,2.3-0.4,4-1.2,5.1c-0.7,0.8-1.6,1.3-2.8,1.3
			c-1.2,0-2.2-0.5-2.9-1.4c-0.7-0.9-1.1-2.6-1.1-5c0-2.3,0.4-4,1.2-5C262.5,85.9,263.4,85.4,264.6,85.4z M264.6,87.4
			c-0.3,0-0.5,0.1-0.8,0.3c-0.2,0.2-0.4,0.5-0.5,1c-0.2,0.6-0.2,1.7-0.2,3.1c0,1.5,0.1,2.5,0.2,3c0.1,0.5,0.3,0.9,0.6,1.1
			c0.2,0.2,0.5,0.3,0.8,0.3s0.5-0.1,0.8-0.3c0.2-0.2,0.4-0.5,0.5-1c0.2-0.6,0.2-1.6,0.2-3.1c0-1.5-0.1-2.5-0.2-3
			c-0.1-0.5-0.3-0.9-0.6-1.1C265.1,87.5,264.9,87.4,264.6,87.4z"/>
	</g>
	<g class="st15">
		<line class="st16" x1="154.7" y1="105.8" x2="154.7" y2="117.4"/>
		<line class="st16" x1="158.5" y1="105.8" x2="158.5" y2="117.4"/>
		<line class="st16" x1="156.6" y1="105.8" x2="156.6" y2="117.4"/>
		<line class="st16" x1="162.3" y1="105.8" x2="162.3" y2="117.4"/>
		<line class="st17" x1="166.1" y1="105.8" x2="166.1" y2="117.4"/>
		<line class="st16" x1="169.9" y1="105.8" x2="169.9" y2="117.4"/>
		<line class="st16" x1="173.7" y1="105.8" x2="173.7" y2="117.4"/>
		<line class="st18" x1="177.5" y1="105.8" x2="177.5" y2="117.4"/>
		<line class="st16" x1="185.1" y1="105.8" x2="185.1" y2="117.4"/>
		<line class="st16" x1="181.3" y1="105.8" x2="181.3" y2="117.4"/>
		<line class="st16" x1="188.9" y1="105.8" x2="188.9" y2="117.4"/>
		<line class="st16" x1="192.7" y1="105.8" x2="192.7" y2="117.4"/>
		<line class="st17" x1="196.5" y1="105.8" x2="196.5" y2="117.4"/>
		<line class="st16" x1="200.4" y1="105.8" x2="200.4" y2="117.4"/>
		<line class="st18" x1="204.2" y1="105.8" x2="204.2" y2="117.4"/>
		<line class="st16" x1="208" y1="105.8" x2="208" y2="117.4"/>
		<line class="st17" x1="211.8" y1="105.8" x2="211.8" y2="117.4"/>
		<line class="st16" x1="215.6" y1="105.8" x2="215.6" y2="117.4"/>
		<line class="st16" x1="223.2" y1="105.8" x2="223.2" y2="117.4"/>
		<line class="st16" x1="219.4" y1="105.8" x2="219.4" y2="117.4"/>
		<line class="st16" x1="227" y1="105.8" x2="227" y2="117.4"/>
		<line class="st16" x1="230.8" y1="105.8" x2="230.8" y2="117.4"/>
		<line class="st17" x1="234.6" y1="105.8" x2="234.6" y2="117.4"/>
		<line class="st16" x1="238.4" y1="105.8" x2="238.4" y2="117.4"/>
		<line class="st16" x1="242.2" y1="105.8" x2="242.2" y2="117.4"/>
		<line class="st17" x1="246.1" y1="105.8" x2="246.1" y2="117.4"/>
		<line class="st16" x1="249.9" y1="105.8" x2="249.9" y2="117.4"/>
		<line class="st16" x1="251.7" y1="105.8" x2="251.7" y2="117.4"/>
		<line class="st16" x1="190.9" y1="105.8" x2="190.9" y2="117.4"/>
		<line class="st16" x1="253.7" y1="105.8" x2="253.7" y2="117.4"/>
	</g>
	<g class="st15">
		<path d="M172.7,142.4c-0.2,0-0.4,0-0.6-0.1c-1.3-0.1-2.5-0.5-3.6-1.2c-2.4-1.4-4-3.5-4.6-6.2c-0.8-3.6,0.5-7.4,3.3-9.7
			c1.3-1,2.7-1.7,4.3-2c0.4-0.1,0.7-0.1,1.1-0.1c0,0,0.1,0,0.1,0c0.3,0,0.6,0,0.9,0c0.2,0,0.3,0,0.5,0.1c0,1,0,1.9,0,2.9
			c-4.3-0.5-7,2.6-7.5,5.3c1.9,0,3.7,0,5.6,0c0,1,0,1.9,0,2.9c-1.9,0-3.7,0-5.6,0c0.6,2.9,3.4,5.7,7.5,5.3c0,1,0,1.9,0,2.9
			c-0.2,0-0.3,0-0.5,0.1C173.4,142.4,173,142.4,172.7,142.4z"/>
		<path d="M157.4,123.2c0.2,0,0.3,0,0.5,0.1c0,1,0,1.9,0,2.9c-2.3-0.2-4.3,0.4-5.9,2.2c-1.3,1.4-1.8,3.1-1.7,4.9
			c0.2,3.6,3.3,6.7,7.6,6.3c0,1,0,1.9,0,2.9c-0.2,0-0.3,0-0.5,0.1c-0.3,0-0.6,0-0.9,0c0,0-0.1,0-0.1,0c-0.6,0-1.2-0.1-1.8-0.3
			c-2.6-0.7-4.5-2.2-5.9-4.5c-0.7-1.1-1.1-2.4-1.2-3.7c0-0.2,0-0.4-0.1-0.6c0-0.3,0-0.6,0-0.9c0,0,0-0.1,0-0.1
			c0.1-0.9,0.2-1.8,0.6-2.7c0.9-2.5,2.5-4.3,4.9-5.4c1-0.5,2-0.8,3-0.9c0.2,0,0.4,0,0.6-0.1C156.8,123.2,157.1,123.2,157.4,123.2z"
			/>
	</g>
</g>
<circle class="st18" cx="209.2" cy="92.5" r="67.5"/>
</svg>
