<!-- Generator: Adobe Illustrator 22.0.1, SVG Export Plug-In  -->
<svg version="1.1"
	 xmlns="http://www.w3.org/2000/svg" xmlns:xlink="http://www.w3.org/1999/xlink" xmlns:a="http://ns.adobe.com/AdobeSVGViewerExtensions/3.0/"
	 x="0px" y="0px" width="19.1px" height="19px" viewBox="0 0 19.1 19" style="enable-background:new 0 0 19.1 19;"
	 xml:space="preserve">
<style type="text/css">
	.st0{fill:#FFFFFF;}
</style>
<defs>
</defs>
<path class="st0" d="M18.8,17.3l-4.4-4.4c1-1.3,1.7-3,1.7-4.9c0-4.4-3.6-8-8-8S0,3.6,0,8s3.6,8,8,8c1.9,0,3.6-0.6,4.9-1.7l4.4,4.4
	c0.4,0.4,1,0.4,1.4,0C19.2,18.3,19.2,17.7,18.8,17.3z M8,14c-3.3,0-6-2.7-6-6s2.7-6,6-6c3.3,0,6,2.7,6,6S11.3,14,8,14z"/>
</svg>
