<?xml version="1.0" encoding="utf-8"?>
<!-- Generator: Adobe Illustrator 22.0.1, SVG Export Plug-In . SVG Version: 6.00 Build 0)  -->
<svg version="1.1" id="Layer_1" xmlns="http://www.w3.org/2000/svg" xmlns:xlink="http://www.w3.org/1999/xlink" x="0px" y="0px"
	 viewBox="0 0 280.9 177" style="enable-background:new 0 0 280.9 177;" xml:space="preserve">
<style type="text/css">
	.st0{fill:#36393A;}
	.st1{fill:#BFC8C7;}
	.st2{fill:#5B9975;}
	.st3{fill:#5F6768;}
	.st4{fill:#FFFFFF;}
	.st5{opacity:0.25;fill:#46A4CE;enable-background:new    ;}
	.st6{clip-path:url(#SVGID_2_);fill:#36393A;}
	.st7{clip-path:url(#SVGID_4_);}
	.st8{fill:none;stroke:#000000;stroke-width:3;stroke-miterlimit:10;}
</style>
<path class="st0" d="M105.4,9.4C96.7,6,87.6,3.5,78.1,1.9C70.5,0.7,62.8,0,54.9,0S39.3,0.7,31.7,1.9C22.3,3.5,13.1,6,4.4,9.4
	C1.2,25.3-4.4,65,6.1,112.3c13.7,61.6,42,64.3,48.8,64.3s35.2-2.7,48.8-64.3C114.2,65,108.6,25.3,105.4,9.4z"/>
<g>
	<g>
		<g>
			<path class="st1" d="M96.6,11.5c-6.2-2-12.6-3.5-19-4.6C70.2,5.6,62.7,5,55.3,5S40.3,5.6,33,6.8c-6.4,1.1-12.8,2.6-19,4.6
				c-1.5,9.4-3.2,23.6-3.1,40.9c7.2,1.7,14.6,3.1,22.2,4c7.4,0.9,14.9,1.3,22.3,1.3s15-0.4,22.3-1.3c7.5-0.9,15-2.2,22.2-4
				C99.8,35.1,98.2,20.8,96.6,11.5z"/>
		</g>
	</g>
</g>
<path class="st2" d="M84.7,47.9H26.1c-1.1,0-2-0.9-2-2v-19c0-1.1,0.9-2,2-2h58.7c1.1,0,2,0.9,2,2v19C86.7,47,85.8,47.9,84.7,47.9z"
	/>
<circle class="st3" cx="30.9" cy="72.8" r="7.5"/>
<circle class="st3" cx="54.9" cy="72.8" r="7.5"/>
<circle class="st3" cx="78.9" cy="72.8" r="7.5"/>
<g>
	<g>
		<circle class="st3" cx="30.9" cy="96.8" r="7.5"/>
		<circle class="st3" cx="54.9" cy="96.8" r="7.5"/>
		<circle class="st3" cx="78.9" cy="96.8" r="7.5"/>
	</g>
</g>
<g>
	<g>
		<circle class="st3" cx="30.9" cy="120.8" r="7.5"/>
		<circle class="st3" cx="54.9" cy="120.8" r="7.5"/>
		<circle class="st3" cx="78.9" cy="120.8" r="7.5"/>
	</g>
</g>
<circle class="st3" cx="42.9" cy="144.8" r="7.5"/>
<circle class="st3" cx="66.9" cy="144.8" r="7.5"/>
<polygon class="st4" points="62.8,144.8 68.7,148.2 68.7,141.3 "/>
<polyline class="st5" points="205.3,24.9 74.4,36.4 154.1,131.5 "/>
<g>
	<g>
		<defs>
			<circle id="SVGID_1_" cx="209.2" cy="92.5" r="67.5"/>
		</defs>
		<clipPath id="SVGID_2_">
			<use xlink:href="#SVGID_1_"  style="overflow:visible;"/>
		</clipPath>
		<rect x="170.8" y="128.2" class="st6" width="118.9" height="105"/>
	</g>
	<g>
		<defs>
			<circle id="SVGID_3_" cx="209.2" cy="92.5" r="67.5"/>
		</defs>
		<clipPath id="SVGID_4_">
			<use xlink:href="#SVGID_3_"  style="overflow:visible;"/>
		</clipPath>
		<g class="st7">
			<g>
				<g>
					<g>
						<path class="st1" d="M286.1,20.4c-17.4-5.6-35.3-10-53.4-13C212,4,190.9,2.3,169.9,2.3s-42,1.7-62.8,5.2
							c-18.1,3-36,7.4-53.4,13c-4.3,26.3-9,66.3-8.8,115.1c20.2,4.9,41.1,8.7,62.2,11.1c20.7,2.4,41.8,3.6,62.8,3.6s42-1.2,62.8-3.6
							c21.2-2.5,42-6.2,62.2-11.1C295.1,86.7,290.4,46.7,286.1,20.4z"/>
					</g>
				</g>
			</g>
			<path class="st2" d="M256.3,122.8H84.2c-1.1,0-2-0.9-2-2V60.2c0-1.1,0.9-2,2-2h172.1c1.1,0,2,0.9,2,2v60.6
				C258.3,121.9,257.4,122.8,256.3,122.8z"/>
			<path d="M101.7,90.1l-3.3-1.9v-8.1l3.3-3.3V90.1z M101.7,104.2l-3.3-3.3v-8.4l3.3-1.6V104.2z"/>
			<path d="M119.7,78.5l-1.7,1.6h-11.8l3.9-3.3h8L119.7,78.5z M109.5,100.4l-1.6,1.6l-1.6-1.6V91l3.3,1.6v7.8H109.5z M121.2,90.5
				l-3.1,1.5h-8l-3.1-1.5l3.1-1.8h8L121.2,90.5z M121.9,104.2h-11.8l-1.7-1.7l1.7-1.6h8.6L121.9,104.2z M121.9,90.1l-3.3-1.9v-7.5
				l1.6-1.6l1.6,1.6v9.4H121.9z"/>
			<path d="M140.7,78.5l-1.7,1.6h-8l-3.2-3.3H139L140.7,78.5z M140.7,102.6l-1.7,1.7h-11.1l3.2-3.3h8L140.7,102.6z"/>
			<path d="M150.7,88.2l-3.3,1.9V76.8l3.3,3.3V88.2z M162.4,90.5l-3.1,1.5h-8l-3.1-1.5l3.1-1.8h8L162.4,90.5z M163.1,90.1l-3.3-1.9
				v-8.1l3.3-3.3V90.1z M163.1,104.2l-3.3-3.3v-8.4l3.3-1.6V104.2z"/>
			<path d="M170.8,88.2l-3.3,1.9v-9.4l1.6-1.6l1.6,1.6L170.8,88.2L170.8,88.2z M181.1,102.6l-1.7,1.7h-11.8l3.2-3.3h8.6L181.1,102.6
				z M182.5,90.5l-3.1,1.5h-8l-3.1-1.5l3.1-1.8h8L182.5,90.5z M182.5,76.8l-3.1,3.3h-8l-1.7-1.6l1.7-1.7
				C171.4,76.8,182.5,76.8,182.5,76.8z M183.2,100.4l-1.6,1.6l-1.6-1.6v-7.8l3.3-1.6L183.2,100.4L183.2,100.4z"/>
			<path d="M191,88.2l-3.3,1.9v-9.4l1.6-1.6l1.6,1.6L191,88.2L191,88.2z M191,100.4l-1.6,1.6l-1.6-1.6V91l3.3,1.6L191,100.4
				L191,100.4z M202.6,90.5l-3.1,1.5h-8l-3.1-1.5l3.1-1.8h8L202.6,90.5z M202.7,76.8l-3.1,3.3h-8l-1.7-1.6l1.7-1.7
				C191.6,76.8,202.7,76.8,202.7,76.8z M201.2,102.6l-1.7,1.7h-8l-1.7-1.7l1.7-1.6h8L201.2,102.6z M203.3,100.4l-1.6,1.6l-1.6-1.6
				v-7.8l3.3-1.6L203.3,100.4L203.3,100.4z"/>
			<path d="M221.8,76.8l-3.3,3.3h-8l-3.3-3.3H221.8z M222.3,90.1l-3.3-1.9v-7.5l3.3-3.3V90.1z M222.3,104.2L219,101v-8.4l3.3-1.6
				V104.2z"/>
			<path d="M230.1,88.2l-3.3,1.9v-9.4l1.6-1.6l1.6,1.6L230.1,88.2L230.1,88.2z M230.1,100.4l-1.6,1.6l-1.6-1.6V91l3.3,1.6
				L230.1,100.4L230.1,100.4z M241.7,90.5l-3.1,1.5h-8l-3.1-1.5l3.1-1.8h8L241.7,90.5z M240.3,78.5l-1.7,1.6h-8l-1.7-1.6l1.7-1.7h8
				L240.3,78.5z M240.3,102.6l-1.7,1.7h-8l-1.7-1.7l1.7-1.6h8L240.3,102.6z M242.4,90.1l-3.3-1.9v-7.5l1.6-1.6l1.6,1.6L242.4,90.1
				L242.4,90.1z M242.4,100.4l-1.6,1.6l-1.6-1.6v-7.8l3.3-1.6L242.4,100.4L242.4,100.4z"/>
		</g>
	</g>
</g>
<circle class="st8" cx="209.2" cy="92.5" r="67.5"/>
</svg>
